<?xml version="1.0" standalone="no"?>
<svg xmlns="http://www.w3.org/2000/svg" xmlns:xlink="http://www.w3.org/1999/xlink" width="1952pt" height="861pt" viewBox="0.00 0.00 1951.51 861.00">
<g id="graph0" class="graph" transform="translate(4,857) scale(1)" data-name="G">

<polygon fill="white" stroke="none" points="-4,4 -4,-857 1947.51,-857 1947.51,4 -4,4" style=""/>
<!-- start -->
<g id="node1" class="node" pointer-events="visible" data-name="start">

<polygon fill="#ffb428" stroke="black" points="1693.52,-853 1639.52,-853 1639.52,-817 1693.52,-817 1693.52,-853" style=""/>
<text text-anchor="middle" x="1666.52" y="-830.8" font-family="Times,serif" font-size="14.00" style="">start</text>
</g>
<!-- help -->
<g id="node2" class="node" pointer-events="visible" data-name="help">

<polygon fill="#fbeab3" stroke="black" points="1666.52,-730 1556.72,-712 1666.52,-694 1776.33,-712 1666.52,-730" style=""/>
<text text-anchor="middle" x="1666.52" y="-707.8" font-family="Times,serif" font-size="14.00" style="">Need some help?</text>
</g>
<!-- start&#45;&gt;help -->
<g id="edge1" class="edge" data-name="start-&gt;help">

<path fill="none" stroke="black" d="M1666.52,-816.66C1666.52,-797.08 1666.52,-764.89 1666.52,-741.58" style=""/>
<polygon fill="black" stroke="black" points="1670.02,-741.82 1666.52,-731.82 1663.02,-741.82 1670.02,-741.82" style=""/>
</g>
<!-- need -->
<g id="node3" class="node" pointer-events="visible" data-name="need">

<polygon fill="#fbeab3" stroke="black" points="1282.52,-591.2 1161.2,-573.2 1282.52,-555.2 1403.84,-573.2 1282.52,-591.2" style=""/>
<text text-anchor="middle" x="1282.52" y="-569" font-family="Times,serif" font-size="14.00" style="">What do you need?</text>
</g>
<!-- help&#45;&gt;need -->
<g id="edge2" class="edge" data-name="help-&gt;need">

<path fill="none" stroke="black" d="M1633.12,-699.1C1564.02,-674.48 1405.34,-617.95 1327.4,-590.19" style=""/>
<polygon fill="black" stroke="black" points="1328.97,-587.03 1318.38,-586.97 1326.62,-593.63 1328.97,-587.03" style=""/>
<text text-anchor="middle" x="1509.74" y="-638.4" font-family="Times,serif" font-size="14.00" style="">Yes!</text>
</g>
<!-- end -->
<g id="node14" class="node" pointer-events="visible" data-name="end">

<polygon fill="#ffb428" stroke="black" points="1273.05,-36 1083.99,-36 1083.99,0 1273.05,0 1273.05,-36" style=""/>
<text text-anchor="middle" x="1178.52" y="-13.8" font-family="Times,serif" font-size="14.00" style="">Congrats, you should do great!</text>
</g>
<!-- help&#45;&gt;end -->
<g id="edge3" class="edge" data-name="help-&gt;end">

<path fill="none" stroke="black" d="M1726.97,-703.4C1798.64,-690.62 1908.52,-657.45 1908.52,-574.2 1908.52,-574.2 1908.52,-574.2 1908.52,-155.8 1908.52,-93.08 1486.82,-46.67 1284.45,-28.02" style=""/>
<polygon fill="black" stroke="black" points="1284.99,-24.55 1274.72,-27.13 1284.36,-31.52 1284.99,-24.55" style=""/>
<text text-anchor="middle" x="1926.02" y="-360.8" font-family="Times,serif" font-size="14.00" style="">Nope!</text>
</g>
<!-- class -->
<g id="node4" class="node" pointer-events="visible" data-name="class">

<polygon fill="#d9ed92" stroke="black" points="154.52,-452.4 44.44,-434.4 154.52,-416.4 264.6,-434.4 154.52,-452.4" style=""/>
<text text-anchor="middle" x="154.52" y="-430.2" font-family="Times,serif" font-size="14.00" style="">Are you in class?</text>
</g>
<!-- need&#45;&gt;class -->
<g id="edge4" class="edge" data-name="need-&gt;class">

<path fill="none" stroke="black" d="M1217.83,-564.35C1021.53,-540.55 433.56,-469.24 227.13,-444.21" style=""/>
<polygon fill="black" stroke="black" points="227.69,-440.75 217.34,-443.02 226.85,-447.7 227.69,-440.75" style=""/>
<text text-anchor="middle" x="919.65" y="-499.6" font-family="Times,serif" font-size="14.00" style="">I have a question about a concept or assignment</text>
</g>
<!-- feedback -->
<g id="node9" class="node" pointer-events="visible" data-name="feedback">

<polygon fill="#cbf3f0" stroke="black" points="1282.52,-452.4 1037.15,-434.4 1282.52,-416.4 1527.89,-434.4 1282.52,-452.4" style=""/>
<text text-anchor="middle" x="1282.52" y="-430.2" font-family="Times,serif" font-size="14.00" style="">How would you like to provide feedback?</text>
</g>
<!-- need&#45;&gt;feedback -->
<g id="edge18" class="edge" data-name="need-&gt;feedback">

<path fill="none" stroke="black" d="M1282.52,-554.87C1282.52,-531.95 1282.52,-491.25 1282.52,-463.8" style=""/>
<polygon fill="black" stroke="black" points="1286.02,-464.1 1282.52,-454.1 1279.02,-464.1 1286.02,-464.1" style=""/>
<text text-anchor="middle" x="1418.9" y="-499.6" font-family="Times,serif" font-size="14.00" style="">Something about the course isn't working for me</text>
</g>
<!-- in_class_question -->
<g id="node5" class="node" pointer-events="visible" data-name="in_class_question">

<polygon fill="#d9ed92" stroke="black" points="146.52,-313.6 56.86,-295.6 146.52,-277.6 236.18,-295.6 146.52,-313.6" style=""/>
<text text-anchor="middle" x="146.52" y="-291.4" font-family="Times,serif" font-size="14.00" style="">Help options:</text>
</g>
<!-- class&#45;&gt;in_class_question -->
<g id="edge5" class="edge" data-name="class-&gt;in_class_question">

<path fill="none" stroke="black" d="M153.51,-416.07C152.17,-393.15 149.79,-352.45 148.18,-325" style=""/>
<polygon fill="black" stroke="black" points="151.69,-325.07 147.62,-315.3 144.71,-325.48 151.69,-325.07" style=""/>
<text text-anchor="middle" x="162.41" y="-360.8" font-family="Times,serif" font-size="14.00" style="">Yes</text>
</g>
<!-- school_day -->
<g id="node6" class="node" pointer-events="visible" data-name="school_day">

<polygon fill="#d9ed92" stroke="black" points="534.52,-452.4 370.71,-434.4 534.52,-416.4 698.34,-434.4 534.52,-452.4" style=""/>
<text text-anchor="middle" x="534.52" y="-430.2" font-family="Times,serif" font-size="14.00" style="">Is it during the school day?</text>
</g>
<!-- class&#45;&gt;school_day -->
<g id="edge6" class="edge" data-name="class-&gt;school_day">

<path fill="none" stroke="black" d="M267.51,-434.4C295.05,-434.4 325.2,-434.4 355,-434.4" style=""/>
<polygon fill="black" stroke="black" points="354.89,-437.9 364.89,-434.4 354.89,-430.9 354.89,-437.9" style=""/>
<text text-anchor="middle" x="317.59" y="-441.6" font-family="Times,serif" font-size="14.00" style="">No</text>
</g>
<!-- answered -->
<g id="node10" class="node" pointer-events="visible" data-name="answered">

<polygon fill="#d9ed92" stroke="black" points="534.52,-174.8 433.89,-156.8 534.52,-138.8 635.15,-156.8 534.52,-174.8" style=""/>
<text text-anchor="middle" x="534.52" y="-152.6" font-family="Times,serif" font-size="14.00" style="">Still need help?</text>
</g>
<!-- in_class_question&#45;&gt;answered -->
<g id="edge7" class="edge" data-name="in_class_question-&gt;answered">

<path fill="none" stroke="black" d="M105.61,-285.42C59.88,-273.34 -4.24,-249.83 24.24,-217.8 51.68,-186.94 306.4,-169.33 445.25,-161.95" style=""/>
<polygon fill="black" stroke="black" points="445.36,-165.45 455.17,-161.43 445,-158.46 445.36,-165.45" style=""/>
<text text-anchor="middle" x="54.66" y="-222" font-family="Times,serif" font-size="14.00" style="">Ask Mr. D</text>
</g>
<!-- in_class_question&#45;&gt;answered -->
<g id="edge8" class="edge" data-name="in_class_question-&gt;answered">

<path fill="none" stroke="black" d="M156.4,-279.17C168.67,-261.38 191.31,-232.68 218.33,-217.8 285.54,-180.8 371.61,-166.23 436.98,-160.67" style=""/>
<polygon fill="black" stroke="black" points="436.91,-164.19 446.6,-159.91 436.36,-157.21 436.91,-164.19" style=""/>
<text text-anchor="middle" x="263.62" y="-222" font-family="Times,serif" font-size="14.00" style="">Ask a classmate</text>
</g>
<!-- during_school -->
<g id="node7" class="node" pointer-events="visible" data-name="during_school">

<polygon fill="#d9ed92" stroke="black" points="534.52,-313.6 444.86,-295.6 534.52,-277.6 624.18,-295.6 534.52,-313.6" style=""/>
<text text-anchor="middle" x="534.52" y="-291.4" font-family="Times,serif" font-size="14.00" style="">Help options:</text>
</g>
<!-- school_day&#45;&gt;during_school -->
<g id="edge9" class="edge" data-name="school_day-&gt;during_school">

<path fill="none" stroke="black" d="M534.52,-416.07C534.52,-393.15 534.52,-352.45 534.52,-325" style=""/>
<polygon fill="black" stroke="black" points="538.02,-325.3 534.52,-315.3 531.02,-325.3 538.02,-325.3" style=""/>
<text text-anchor="middle" x="545.41" y="-360.8" font-family="Times,serif" font-size="14.00" style="">Yes</text>
</g>
<!-- outside_school -->
<g id="node8" class="node" pointer-events="visible" data-name="outside_school">

<polygon fill="#d9ed92" stroke="black" points="820.52,-313.6 730.86,-295.6 820.52,-277.6 910.18,-295.6 820.52,-313.6" style=""/>
<text text-anchor="middle" x="820.52" y="-291.4" font-family="Times,serif" font-size="14.00" style="">Help options:</text>
</g>
<!-- school_day&#45;&gt;outside_school -->
<g id="edge10" class="edge" data-name="school_day-&gt;outside_school">

<path fill="none" stroke="black" d="M564.05,-419.28C616.88,-394.01 727.37,-341.16 784.54,-313.81" style=""/>
<polygon fill="black" stroke="black" points="786.02,-316.98 793.53,-309.51 783,-310.67 786.02,-316.98" style=""/>
<text text-anchor="middle" x="703.08" y="-360.8" font-family="Times,serif" font-size="14.00" style="">No</text>
</g>
<!-- during_school&#45;&gt;answered -->
<g id="edge11" class="edge" data-name="during_school-&gt;answered">

<path fill="none" stroke="black" d="M531.58,-277.84C529.18,-262.3 526.38,-238.52 527.58,-217.8 528.18,-207.45 529.35,-196.16 530.56,-186.18" style=""/>
<polygon fill="black" stroke="black" points="534.02,-186.69 531.83,-176.32 527.08,-185.8 534.02,-186.69" style=""/>
<text text-anchor="middle" x="602.49" y="-222" font-family="Times,serif" font-size="14.00" style="">Go to Mr. D's office hours</text>
</g>
<!-- during_school&#45;&gt;answered -->
<g id="edge12" class="edge" data-name="during_school-&gt;answered">

<path fill="none" stroke="black" d="M588.43,-288.05C621.87,-280.89 662.37,-265.91 683.52,-234.6 708.2,-198.05 651.46,-177.86 601.03,-167.47" style=""/>
<polygon fill="black" stroke="black" points="601.71,-164.04 591.22,-165.57 600.37,-170.91 601.71,-164.04" style=""/>
<text text-anchor="middle" x="762.02" y="-222" font-family="Times,serif" font-size="14.00" style="">Go to TA tutorial sessions</text>
</g>
<!-- during_school&#45;&gt;answered -->
<g id="edge13" class="edge" data-name="during_school-&gt;answered">

<path fill="none" stroke="black" d="M484.61,-287.12C429.56,-277.73 346.23,-259.75 327.34,-234.6 291.95,-187.51 373.54,-169.28 444.51,-162.23" style=""/>
<polygon fill="black" stroke="black" points="444.65,-165.73 454.29,-161.33 444.01,-158.76 444.65,-165.73" style=""/>
<text text-anchor="middle" x="421.62" y="-222" font-family="Times,serif" font-size="14.00" style="">Make an appointment with Mr. D</text>
</g>
<!-- outside_school&#45;&gt;answered -->
<g id="edge14" class="edge" data-name="outside_school-&gt;answered">

<path fill="none" stroke="black" d="M833.5,-279.8C846.49,-263.13 862.56,-235.99 847.52,-217.8 819.41,-183.79 704.83,-168.87 622.44,-162.45" style=""/>
<polygon fill="black" stroke="black" points="622.78,-158.97 612.55,-161.71 622.26,-165.95 622.78,-158.97" style=""/>
<text text-anchor="middle" x="889.1" y="-222" font-family="Times,serif" font-size="14.00" style="">Email Mr. D</text>
</g>
<!-- outside_school&#45;&gt;answered -->
<g id="edge15" class="edge" data-name="outside_school-&gt;answered">

<path fill="none" stroke="black" d="M859.69,-285.06C903.03,-272.7 963.41,-248.99 936.52,-217.8 899.08,-174.35 747.06,-161.89 641.1,-158.58" style=""/>
<polygon fill="black" stroke="black" points="641.32,-155.08 631.22,-158.3 641.12,-162.08 641.32,-155.08" style=""/>
<text text-anchor="middle" x="983.35" y="-222" font-family="Times,serif" font-size="14.00" style="">Email the TAs</text>
</g>
<!-- improve -->
<g id="node11" class="node" pointer-events="visible" data-name="improve">

<polygon fill="#cbf3f0" stroke="black" points="1121.52,-313.6 959.76,-295.6 1121.52,-277.6 1283.29,-295.6 1121.52,-313.6" style=""/>
<text text-anchor="middle" x="1121.52" y="-291.4" font-family="Times,serif" font-size="14.00" style="">Did the situation improve?</text>
</g>
<!-- feedback&#45;&gt;improve -->
<g id="edge19" class="edge" data-name="feedback-&gt;improve">

<path fill="none" stroke="black" d="M1325.57,-419.14C1360.3,-405.33 1400.23,-382.67 1379.52,-356.6 1359.04,-330.81 1280.73,-315.1 1215.71,-306.26" style=""/>
<polygon fill="black" stroke="black" points="1216.44,-302.83 1206.07,-304.99 1215.53,-309.77 1216.44,-302.83" style=""/>
<text text-anchor="middle" x="1430.41" y="-360.8" font-family="Times,serif" font-size="14.00" style="">Talk with Mr. D</text>
</g>
<!-- feedback&#45;&gt;improve -->
<g id="edge20" class="edge" data-name="feedback-&gt;improve">

<path fill="none" stroke="black" d="M1170.26,-424.14C1100.21,-415.77 1019.32,-400.46 997.37,-373.4 974.28,-344.95 1016.87,-324.14 1058.32,-311.41" style=""/>
<polygon fill="black" stroke="black" points="1059.28,-314.78 1067.9,-308.62 1057.32,-308.06 1059.28,-314.78" style=""/>
<text text-anchor="middle" x="1032.1" y="-360.8" font-family="Times,serif" font-size="14.00" style="">Email Mr. D</text>
</g>
<!-- feedback&#45;&gt;improve -->
<g id="edge21" class="edge" data-name="feedback-&gt;improve">

<path fill="none" stroke="black" d="M1196.67,-422.21C1167.1,-413.78 1136.95,-399.06 1119.04,-373.4 1109.24,-359.37 1109.89,-340.11 1112.97,-324.39" style=""/>
<polygon fill="black" stroke="black" points="1116.37,-325.22 1115.31,-314.67 1109.57,-323.57 1116.37,-325.22" style=""/>
<text text-anchor="middle" x="1242.77" y="-360.8" font-family="Times,serif" font-size="14.00" style="">Submit through anonymous form on Canvas</text>
</g>
<!-- answered&#45;&gt;class -->
<g id="edge17" class="edge" data-name="answered-&gt;class">

<path fill="none" stroke="black" d="M455.24,-161.09C314.98,-167.74 35.04,-184.99 5.52,-217.8 -2.84,-227.09 -0.36,-302.25 5.09,-313.6 27.94,-361.21 79.95,-395.86 116.15,-415.3" style=""/>
<polygon fill="black" stroke="black" points="114.53,-418.4 125.02,-419.91 117.76,-412.19 114.53,-418.4" style=""/>
<text text-anchor="middle" x="18.74" y="-291.4" font-family="Times,serif" font-size="14.00" style="">Yes!</text>
</g>
<!-- answered&#45;&gt;end -->
<g id="edge16" class="edge" data-name="answered-&gt;end">

<path fill="none" stroke="black" d="M579.04,-146.34C683.13,-124.23 944.23,-68.77 1085.04,-38.86" style=""/>
<polygon fill="black" stroke="black" points="1085.68,-42.3 1094.73,-36.8 1084.22,-35.45 1085.68,-42.3" style=""/>
<text text-anchor="middle" x="912.02" y="-83.2" font-family="Times,serif" font-size="14.00" style="">Nope!</text>
</g>
<!-- convos -->
<g id="node12" class="node" pointer-events="visible" data-name="convos">

<polygon fill="#cbf3f0" stroke="black" points="1607.52,-313.6 1382.61,-295.6 1607.52,-277.6 1832.44,-295.6 1607.52,-313.6" style=""/>
<text text-anchor="middle" x="1607.52" y="-291.4" font-family="Times,serif" font-size="14.00" style="">Have you had multiple conversations?</text>
</g>
<!-- improve&#45;&gt;convos -->
<g id="edge23" class="edge" data-name="improve-&gt;convos">

<path fill="none" stroke="black" d="M1287.76,-295.6C1312.77,-295.6 1338.99,-295.6 1365.21,-295.6" style=""/>
<polygon fill="black" stroke="black" points="1364.92,-299.1 1374.92,-295.6 1364.92,-292.1 1364.92,-299.1" style=""/>
<text text-anchor="middle" x="1332.86" y="-302.8" font-family="Times,serif" font-size="14.00" style="">Nope...</text>
</g>
<!-- improve&#45;&gt;end -->
<g id="edge22" class="edge" data-name="improve-&gt;end">

<path fill="none" stroke="black" d="M1125,-277.77C1134.48,-231.95 1160.83,-104.54 1172.65,-47.38" style=""/>
<polygon fill="black" stroke="black" points="1176.04,-48.29 1174.64,-37.79 1169.18,-46.87 1176.04,-48.29" style=""/>
<text text-anchor="middle" x="1165.74" y="-152.6" font-family="Times,serif" font-size="14.00" style="">Yes!</text>
</g>
<!-- convos&#45;&gt;feedback -->
<g id="edge25" class="edge" data-name="convos-&gt;feedback">

<path fill="none" stroke="black" d="M1587.09,-312.43C1564.2,-329.52 1525.43,-356.55 1488.52,-373.4 1445.78,-392.91 1395.14,-407.76 1354.77,-417.81" style=""/>
<polygon fill="black" stroke="black" points="1354.03,-414.39 1345.14,-420.16 1355.69,-421.19 1354.03,-414.39" style=""/>
<text text-anchor="middle" x="1527.08" y="-360.8" font-family="Times,serif" font-size="14.00" style="">No</text>
</g>
<!-- chair -->
<g id="node13" class="node" pointer-events="visible" data-name="chair">

<ellipse fill="#cbf3f0" stroke="black" cx="1489.52" cy="-156.8" rx="98.44" ry="18" style=""/>
<text text-anchor="middle" x="1489.52" y="-152.6" font-family="Times,serif" font-size="14.00" style="">Talk with the CS chair</text>
</g>
<!-- convos&#45;&gt;chair -->
<g id="edge24" class="edge" data-name="convos-&gt;chair">

<path fill="none" stroke="black" d="M1593.52,-278.37C1573.25,-254.87 1535.53,-211.14 1511.52,-183.3" style=""/>
<polygon fill="black" stroke="black" points="1514.41,-181.3 1505.23,-176.01 1509.11,-185.87 1514.41,-181.3" style=""/>
<text text-anchor="middle" x="1566.41" y="-222" font-family="Times,serif" font-size="14.00" style="">Yes</text>
</g>
<!-- chair&#45;&gt;improve -->
<g id="edge26" class="edge" data-name="chair-&gt;improve">

<path fill="none" stroke="black" d="M1447.24,-173.52C1377.81,-199.33 1240.15,-250.5 1168.05,-277.31" style=""/>
<polygon fill="black" stroke="black" points="1167.05,-273.94 1158.9,-280.71 1169.49,-280.5 1167.05,-273.94" style=""/>
</g>
</g>
</svg>